<svg width="54" height="54" viewBox="0 0 54 54" fill="none" xmlns="http://www.w3.org/2000/svg">
<path d="M0.113461 48.1778L5.73191 53.808C5.98732 54.064 7.51971 54.064 7.77501 53.808L40.4645 21.8174C40.9752 21.3055 41.486 21.0496 42.2522 21.0496C42.5076 21.0496 43.0184 21.0496 43.2737 21.3055C44.2952 21.5615 44.806 22.5852 44.806 23.6089V39.7322V39.9882H52.9785C53.4892 39.9882 53.7447 39.9882 54 39.9882V0.831794C54 0.831794 54 0.831795 53.4893 0.319882C52.9786 -0.19203 53.234 0.0640521 52.723 0.0640521H14.4151C14.4151 0.319882 14.4151 0.575838 14.4151 1.34371V9.27721C14.4151 9.789 14.4151 10.3009 14.4151 10.3009H30.7599C31.7814 10.3009 32.8029 10.8127 33.0582 11.8364C33.5689 12.8601 33.3137 13.8838 32.5475 14.6517L0.624306 46.3863C0.368885 46.6423 0.113461 46.8982 0.113461 47.41C-0.14183 47.9218 0.113461 47.9218 0.113461 48.1778Z" fill="#FF7425"/>
</svg>
