<svg width="23" height="19" viewBox="0 0 23 19" fill="none" xmlns="http://www.w3.org/2000/svg">
<path d="M21.8516 3.17969C22.1445 3.17969 22.4375 2.93555 22.4375 2.59375V1.03125C22.4375 0.738281 22.1445 0.445312 21.8516 0.445312H1.14844C0.806641 0.445312 0.5625 0.738281 0.5625 1.03125V2.59375C0.5625 2.93555 0.806641 3.17969 1.14844 3.17969H21.8516ZM21.8516 10.9922C22.1445 10.9922 22.4375 10.748 22.4375 10.4062V8.84375C22.4375 8.55078 22.1445 8.25781 21.8516 8.25781H1.14844C0.806641 8.25781 0.5625 8.55078 0.5625 8.84375V10.4062C0.5625 10.748 0.806641 10.9922 1.14844 10.9922H21.8516ZM21.8516 18.8047C22.1445 18.8047 22.4375 18.5605 22.4375 18.2188V16.6562C22.4375 16.3633 22.1445 16.0703 21.8516 16.0703H1.14844C0.806641 16.0703 0.5625 16.3633 0.5625 16.6562V18.2188C0.5625 18.5605 0.806641 18.8047 1.14844 18.8047H21.8516Z" fill="white"/>
</svg>
