<svg width="172" height="46" viewBox="0 0 172 46" fill="none" xmlns="http://www.w3.org/2000/svg">
<path d="M74.5469 21.8906C74.5469 24.1823 74.0833 26.1875 73.1562 27.9062C72.2396 29.6146 70.9427 30.9427 69.2656 31.8906C67.599 32.8385 65.6406 33.3125 63.3906 33.3125C61.0885 33.3125 59.1094 32.8542 57.4531 31.9375C55.7969 31.0104 54.526 29.6927 53.6406 27.9844C52.7552 26.276 52.3125 24.2448 52.3125 21.8906C52.3125 19.5365 52.75 17.5208 53.625 15.8438C54.5104 14.1667 55.7812 12.8854 57.4375 12C59.1042 11.1042 61.099 10.6562 63.4219 10.6562C65.7552 10.6562 67.75 11.1094 69.4062 12.0156C71.0625 12.9115 72.3333 14.1979 73.2188 15.875C74.1042 17.5521 74.5469 19.5573 74.5469 21.8906ZM69.8438 21.8906C69.8438 19.5156 69.2812 17.6562 68.1562 16.3125C67.0312 14.9583 65.4531 14.2812 63.4219 14.2812C61.3594 14.2812 59.7656 14.9531 58.6406 16.2969C57.5156 17.6302 56.9531 19.4948 56.9531 21.8906C56.9531 23.4948 57.2135 24.8802 57.7344 26.0469C58.2552 27.2135 58.9948 28.1146 59.9531 28.75C60.9219 29.375 62.0677 29.6875 63.3906 29.6875C65.4531 29.6875 67.0417 29.0104 68.1562 27.6562C69.2812 26.3021 69.8438 24.3802 69.8438 21.8906ZM82.6562 24.6406V33H78.0469V10.9844H89.0469C91.6719 10.9844 93.6979 11.5521 95.125 12.6875C96.5521 13.8125 97.2656 15.4323 97.2656 17.5469C97.2656 19.0885 96.8281 20.4219 95.9531 21.5469C95.0781 22.6615 93.8958 23.3958 92.4062 23.75L98.3594 33H93.1719L88.0625 24.6406H82.6562ZM92.625 17.7344C92.625 16.6823 92.2865 15.8906 91.6094 15.3594C90.9323 14.8281 89.9167 14.5625 88.5625 14.5625H82.6562V21.0625H88.6875C89.9792 21.0625 90.9583 20.7708 91.625 20.1875C92.2917 19.6042 92.625 18.7865 92.625 17.7344ZM105.781 10.9844V33H101.172V10.9844H105.781ZM118.625 24.2344L113.094 33H108.219L115.844 21.4219L108.859 10.9844H113.734L118.625 18.7656L123.516 10.9844H128.359L121.672 21.4219L129 33H124.156L118.625 24.2344ZM142.266 23.9688V33H137.672V23.9688L129.828 10.9844H134.656L139.938 20.2969L145.281 10.9844H150.109L142.266 23.9688Z" fill="white"/>
<path d="M157.312 28.2344V33H152.797V28.2344H157.312Z" fill="#FF7425"/>
<g clip-path="url(#clip0_1_80)">
<path d="M9.40906 22.1381V17.8675L22.3286 6.74097V10.9924L9.40906 22.1381Z" fill="white"/>
<path d="M22.3286 10.9924V6.74097L36.0456 18.7632L35.2481 22.1381L22.3286 10.9924Z" fill="white"/>
<path d="M22.3286 33.3414L3 16.6803L22.3286 0L41.6571 16.6803L22.3286 33.3414ZM7.98802 16.3421L22.3286 29.0526L37.9161 16.6803L22.3286 4.23684L7.98802 16.3421Z" fill="white"/>
<path d="M22.3286 39.6612V35.1607L41.6571 18.4805V22.9809L22.3286 39.6612Z" fill="white"/>
<path d="M3 22.9809V18.4805L22.3286 35.1607V39.6612L3 22.9809Z" fill="white"/>
<path d="M22.3286 46V41.4996L41.6571 24.8193V29.3198L22.3286 46Z" fill="white"/>
<path d="M3 29.3198V24.8193L22.3286 41.4996V46L3 29.3198Z" fill="white"/>
</g>
<defs>
<clipPath id="clip0_1_80">
<rect width="41" height="46" fill="white"/>
</clipPath>
</defs>
</svg>
