<svg width="110" height="30" viewBox="0 0 110 30" fill="none" xmlns="http://www.w3.org/2000/svg">
<g clip-path="url(#clip0_1_294)">
<path d="M2.07848 2.06642C2.07848 4.22634 2.07848 6.2508 2.07848 8.27526C2.07848 12.2075 2.08037 16.1398 2.0766 20.072C2.0766 21.1256 1.4091 21.6017 0.438016 21.152C0.194775 21.0391 0.0269565 20.5104 0.0250709 20.1736C0.000558166 14.0871 0.00621495 8.00057 0.00621495 1.9159C0.00621495 1.54149 0.0231853 1.16519 0.00244376 0.792667C-0.0258402 0.243279 0.189118 -0.0389416 0.76611 0.00433216C0.922615 0.015621 1.07912 0.00621363 1.23751 0.00621363C33.5868 0.00621363 65.9361 0.00621363 98.2853 0.00621363C99.4469 0.00621363 99.577 0.169902 99.4997 1.29502C99.4318 2.31101 98.6776 2.05889 98.1043 2.06077C72.4074 2.0683 46.7087 2.06642 21.0118 2.06642C15.0816 2.06642 9.15135 2.06642 3.22116 2.06642C2.88175 2.06642 2.54046 2.06642 2.07848 2.06642Z" fill="#08D8FF"/>
<path d="M107.935 27.9529C107.935 27.4731 107.935 27.1081 107.935 26.7431C107.935 21.157 107.935 15.5728 107.935 9.98675C107.935 8.8748 108.542 8.42701 109.59 8.85599C109.807 8.94441 109.958 9.45053 109.962 9.76473C109.988 13.0724 109.979 16.38 109.979 19.6876C109.979 22.745 109.943 25.8042 109.999 28.8616C110.016 29.7948 109.692 30.0018 108.812 30.0018C76.4698 29.983 44.128 29.9849 11.7863 29.9905C11.066 29.9905 10.4475 30.0902 10.4532 28.9877C10.4588 27.9209 11.0302 27.951 11.7731 27.951C43.3304 27.9566 74.8877 27.9548 106.445 27.9548C106.907 27.9529 107.367 27.9529 107.935 27.9529Z" fill="#08D8FF"/>
<path d="M43.6598 11.0106C43.6598 13.972 43.6655 16.9334 43.6561 19.893C43.6523 21.003 43.4015 21.2439 42.3531 21.2382C41.3255 21.2326 41.1011 21.0162 41.0992 19.9588C41.0935 16.8092 41.0898 13.6578 41.1011 10.5082C41.1048 9.20813 41.6121 8.70766 42.9188 8.6625C43.3261 8.64933 43.7352 8.67191 44.1407 8.65686C45.1551 8.62111 45.7509 9.08019 46.0904 10.0473C47.135 13.0407 48.2362 16.0134 49.5278 18.9936C49.541 18.7189 49.5674 18.4442 49.5674 18.1714C49.5712 15.4584 49.5655 12.7434 49.5712 10.0303C49.5731 8.72271 50.3763 8.15827 51.6001 8.67379C51.8565 8.78104 52.1054 9.24952 52.1092 9.55432C52.145 12.9221 52.1488 16.2918 52.1205 19.6597C52.1129 20.6399 51.5567 21.1235 50.5762 21.1648C47.6233 21.2928 47.6252 21.2928 46.6372 18.527C45.7905 16.1564 44.9383 13.7857 44.0841 11.417C44.0275 11.2589 43.937 11.1103 43.8635 10.9579C43.7937 10.9767 43.7258 10.9936 43.6598 11.0106Z" fill="#08D8FF"/>
<path d="M88.6258 14.7994C88.6258 13.1154 88.6446 11.4315 88.6182 9.74765C88.605 8.91228 88.9312 8.58114 89.7948 8.61125C91.3599 8.66393 92.9306 8.61313 94.4975 8.63006C96.468 8.65076 98.4705 10.1653 98.9984 12.0054C99.5867 14.0524 98.7721 16.1051 96.9205 17.2471C95.9928 17.8191 95.9871 17.8379 96.7357 18.6752C97.1939 19.1869 97.6804 19.6761 98.1141 20.2086C98.2498 20.376 98.3667 20.6978 98.2932 20.8577C98.2178 21.0214 97.9067 21.1361 97.6842 21.1644C96.6075 21.2979 95.6496 21.1437 94.9557 20.154C94.5654 19.5971 94.0638 19.106 93.5604 18.6413C93.2719 18.376 92.9023 18.1314 92.5289 18.0392C91.4032 17.7589 91.1374 17.996 91.1336 19.1399C91.1336 19.3582 91.1336 19.5764 91.1336 19.7947C91.128 21.0552 90.3134 21.6404 89.182 21.0966C88.8935 20.9574 88.6597 20.4099 88.6484 20.0411C88.5956 18.2932 88.6258 16.5454 88.6258 14.7994ZM91.1374 11.2189C91.1374 12.5698 91.1129 13.7777 91.1619 14.9856C91.1694 15.1851 91.4843 15.5294 91.6691 15.5388C92.6987 15.5877 93.7376 15.6121 94.7634 15.5312C95.8853 15.4428 96.8224 14.3365 96.7715 13.3074C96.715 12.1559 95.7571 11.2434 94.5465 11.2227C93.4567 11.2039 92.3649 11.2189 91.1374 11.2189Z" fill="#08D8FF"/>
<path d="M35.8008 14.9402C35.748 15.7473 35.7518 16.562 35.6292 17.3578C35.2634 19.7247 33.8813 21.0944 31.4715 21.3202C30.4005 21.4199 29.2729 21.3484 28.2207 21.1227C26.1145 20.6692 24.8719 19.0004 24.8625 16.8649C24.8568 15.5554 24.8172 14.2421 24.8738 12.9345C24.953 11.102 25.76 9.70213 27.5476 9.01916C29.5784 8.24211 31.6167 8.29668 33.5456 9.28256C35.122 10.0897 35.6651 11.5761 35.748 13.2544C35.7744 13.815 35.7518 14.3776 35.7518 14.9383C35.7669 14.9383 35.7838 14.9402 35.8008 14.9402ZM33.3948 14.8517C33.3741 14.8498 33.3533 14.848 33.3326 14.8461C33.3326 14.3795 33.3533 13.911 33.3288 13.4463C33.2383 11.7398 32.0881 10.7087 30.293 10.7087C28.4413 10.7087 27.3175 11.7567 27.2836 13.546C27.2647 14.5413 27.2685 15.5366 27.2817 16.5319C27.3043 18.0596 28.1321 18.9571 29.6462 19.1227C31.6167 19.339 32.8499 18.6466 33.1742 17.0643C33.3231 16.3418 33.325 15.5893 33.3948 14.8517Z" fill="#08D8FF"/>
<path d="M13.0634 14.2749C13.4273 13.9268 13.6461 13.7387 13.8422 13.528C15.1168 12.1545 16.3858 10.7735 17.6605 9.39818C18.1149 8.90712 19.9062 8.55905 20.4493 8.89019C20.9697 9.20627 20.7227 9.56187 20.4229 9.88737C19.0841 11.3323 17.7699 12.7998 16.3934 14.2072C15.7919 14.8224 15.7221 15.2307 16.3802 15.8855C17.7529 17.2514 19.0351 18.7058 20.3324 20.1451C20.5209 20.3539 20.5851 20.6719 20.7057 20.941C20.4135 21.0708 20.1325 21.274 19.827 21.3173C18.8937 21.4508 18.1319 21.1761 17.5285 20.384C16.8855 19.5411 16.1313 18.7829 15.4487 17.9701C14.9641 17.3944 14.4003 17.052 13.6442 17.3285C12.9352 17.5882 12.9729 18.2185 12.9974 18.8243C13.0125 19.1987 13.0012 19.5731 12.9993 19.9475C12.9918 21.1498 12.2319 21.6992 11.0949 21.242C10.829 21.1347 10.5235 20.7114 10.5197 20.4292C10.482 16.8111 10.4933 13.1912 10.4952 9.57128C10.4952 8.79235 11.0307 8.67382 11.6454 8.67194C12.3035 8.67006 12.9691 8.7058 12.9899 9.58821C13.0182 10.7735 12.9955 11.9588 13.0012 13.1442C13.0031 13.4414 13.0332 13.7387 13.0634 14.2749Z" fill="#08D8FF"/>
<path d="M83.2682 13.5764C83.2682 14.6997 83.3267 15.8248 83.2569 16.9443C83.1023 19.4297 81.8635 20.8784 79.4141 21.2961C78.3864 21.4711 77.2796 21.4767 76.2519 21.3036C73.7101 20.8747 72.4487 19.3187 72.3657 16.5717C72.2978 14.3272 72.3393 12.0788 72.3563 9.83236C72.3638 8.92924 72.7032 8.66773 73.663 8.65644C74.4889 8.64703 74.8509 8.9951 74.8396 9.83988C74.8094 11.9302 74.8075 14.0205 74.8377 16.1108C74.8698 18.3667 76.7045 19.71 78.8484 19.0873C80.1287 18.7147 80.9056 17.5953 80.8811 16.2858C80.8377 14.1033 80.8509 11.9208 80.8188 9.73828C80.8075 8.89915 81.2902 8.67714 82.0162 8.65832C82.7855 8.63763 83.3097 8.85587 83.304 9.74204C83.2965 11.0214 83.3022 12.3008 83.3022 13.5802C83.289 13.5764 83.2795 13.5764 83.2682 13.5764Z" fill="#08D8FF"/>
<path d="M61.2122 11.2132C60.0978 11.2132 59.1305 11.2244 58.1651 11.2094C57.1242 11.1943 56.8866 10.9498 56.8829 9.94508C56.8791 8.91027 57.0922 8.67133 58.1368 8.66568C61.0217 8.65439 63.9048 8.67133 66.7898 8.65628C67.6609 8.65251 68.0399 9.01375 68.0041 9.90181C67.9626 10.9385 67.7816 11.1868 66.7596 11.2056C65.7659 11.2244 64.7722 11.2094 63.6635 11.2094C63.6635 11.9093 63.6635 12.4926 63.6635 13.0758C63.6635 15.3524 63.6653 17.629 63.6635 19.9055C63.6635 21.0852 63.4692 21.3129 62.4661 21.3223C61.4158 21.3317 61.2178 21.1022 61.216 19.8566C61.2141 17.3618 61.216 14.867 61.216 12.3721C61.2122 12.0391 61.2122 11.7023 61.2122 11.2132Z" fill="#08D8FF"/>
</g>
<defs>
<clipPath id="clip0_1_294">
<rect width="110" height="30" fill="white"/>
</clipPath>
</defs>
</svg>
