<svg width="145" height="33" viewBox="0 0 145 33" fill="none" xmlns="http://www.w3.org/2000/svg">
<g clip-path="url(#clip0_1_292)">
<path fill-rule="evenodd" clip-rule="evenodd" d="M134.194 23.1865L134.094 22.3467C134.072 22.2064 133.597 18.897 135.852 16.5691C136.508 15.8899 137.3 15.5009 138.024 15.5009C138.641 15.5009 139.149 15.7692 139.406 16.281C140.652 18.7578 134.194 23.1865 134.194 23.1865ZM124.378 17.9711L124.292 16.5737L124.279 16.3982C124.277 16.3544 123.964 11.9339 124.243 8.78745C124.548 5.36557 125.552 3.15494 126.798 3.15494C127.054 3.15494 127.298 3.28554 127.489 3.52392C128.111 4.29734 128.293 6.36033 127.904 8.21902C127.277 11.1872 126.284 13.5408 125.557 15.2643C125.351 15.7517 125.169 16.1828 125.026 16.5576L124.378 17.9711ZM117.568 27.2908C115.977 27.2908 115.225 25.7688 115.225 24.3381C115.225 16.956 119.307 15.5009 121.092 16.0679C121.092 16.0679 121.15 17.4701 121.294 19.2747C121.419 20.8418 121.532 22.6968 121.559 22.8569C121.559 22.8569 120.076 27.2908 117.568 27.2908ZM104.596 16.3549C104.596 16.3549 104.143 27.2908 100.011 27.2908C98.031 27.2908 97.8774 25.0868 97.8774 24.4106C97.8774 16.6112 103.801 15.2226 104.596 16.3549ZM66.3673 27.5522C63.9969 27.5522 63.1529 25.2022 63.1529 23.0029C63.1529 18.9962 65.4898 15.888 67.4991 15.888C69.4564 15.888 70.1673 18.5747 70.1673 20.38C70.1673 24.4019 68.4978 27.5522 66.3673 27.5522ZM28.6463 18.2509C27.2874 20.3625 24.1923 22.4515 23.293 22.7843C23.293 22.7843 22.6472 18.6484 26.0265 16.2333C28.5025 14.4637 29.6285 16.7248 28.6463 18.2509ZM132.002 27.9495C132.968 29.4696 134.687 30.2101 137.117 30.2101C139.789 30.2101 142.554 28.2022 144.136 26.332C145.076 25.2227 145.178 24.5854 144.782 24.2372C144.422 23.9207 143.628 24.3348 142.9 24.9933C141.918 25.881 139.839 27.1572 138.02 27.1572C135.814 27.1572 134.808 25.7234 134.808 25.7234C139.301 22.9833 142.61 19.8728 142.61 17.2032C142.61 14.2113 140.391 12.8734 138.192 12.8734C134.258 12.8734 130.011 16.468 130.011 22.276C130.011 24.1955 130.657 25.8264 130.657 25.8264C130.657 25.8264 129.877 27.04 127.396 26.835C124.759 26.6173 124.926 21.8511 124.926 21.8511C124.926 21.8511 125.733 20.3477 126.038 19.7878C127.822 16.5099 130.265 12.0216 130.66 6.63971C130.879 3.62411 130.025 2.00472 129.27 1.17671C128.598 0.439453 127.7 0 126.868 0C123.818 0 121.702 3.12915 121.189 6.22006C120.688 9.25109 120.89 13.7599 120.89 13.7599C120.89 13.7599 118.15 13.0823 115.4 14.9481C112.884 16.655 111.767 20.0711 111.416 21.7953C111.256 22.5669 111.202 23.3767 111.254 24.2008C111.278 24.5852 111.396 25.3255 111.396 25.3255C111.396 25.3255 110.491 27.2318 108.884 27.2318C106.294 27.2318 108.003 15.2249 108.103 14.5496C108.183 14.0058 108.515 12.8453 106.688 12.764C105.584 12.7149 105.123 13.1272 105.039 13.6652L104.965 14.2009C104.965 14.2009 101.22 11.6524 96.9801 16.2423C94.7214 18.6834 93.9014 22.2161 93.8643 25.0504L93.8623 25.2289C93.8623 25.2289 92.9334 27.9152 90.7716 27.513C89.3323 27.2454 89.1512 24.6842 89.1512 23.6943C89.1512 21.7953 89.5885 19.6791 89.9405 17.9787C90.1627 16.901 90.3554 15.9719 90.3554 15.4635C90.3554 13.6477 89.8465 12.8734 88.6552 12.8734C87.0338 12.8734 85.5785 14.1583 83.9663 16.1421C81.9087 18.6738 80.378 22.6293 80.378 22.6293C80.378 22.6293 80.4454 21.9222 80.5516 21.2405C80.6205 20.7996 80.8076 18.7578 81.1529 16.9037C81.3445 15.8774 81.4143 15.0372 81.4265 14.9467C81.4869 14.4441 81.3734 14.0102 81.0989 13.6917C80.8289 13.3787 80.4158 13.1986 79.9663 13.1986C79.2458 13.1986 78.3189 13.6802 77.8787 15.0317C77.6776 15.642 77.5622 16.0921 77.4189 16.8169L77.284 17.4895L76.7831 17.0325C74.7989 15.2176 72.0502 13.0546 68.1087 13.0546C62.558 13.0546 59.5622 18.1942 59.5622 23.0315C59.5622 23.6275 59.5993 24.196 59.6711 24.7225L59.6991 24.9302C59.6991 24.9302 58.5404 27.7365 56.5066 27.2251C55.6162 27.0013 55.0677 26.0514 55.0677 23.7897C55.0677 21.9079 55.4457 19.3509 55.6717 17.8165C55.7482 17.2958 55.8095 16.8846 55.8264 16.693L55.8766 16.1255C56.032 14.4174 56.0757 13.6459 55.51 13.2739C55.0939 13.0039 54.6555 12.8734 54.1715 12.8734C53.7062 12.8734 53.3395 13.0889 53.0128 13.3216C52.5104 13.6811 50.8666 15.8698 47.7619 20.9381C47.7117 21.0201 47.6828 21.0638 47.6799 21.0677L47.3413 21.72L46.5268 23.514L46.9708 20.9074L46.9988 20.7368C47.0713 20.2982 47.1997 19.5255 47.2528 19.2795L47.383 18.7138C47.5926 17.8059 48.029 15.9175 48.0868 15.5838C48.2737 14.4775 48.2002 13.7384 47.8615 13.3255C47.611 13.0212 47.1924 12.8734 46.5808 12.8734C45.4546 12.8734 44.5481 13.7297 42.9855 16.2676C42.7417 16.6644 41.8288 18.1788 41.1075 19.3776C40.173 20.9314 39.3252 22.0807 39.3252 22.0807L39.5223 20.0034C39.6732 19.0706 40.2381 14.7864 40.2457 14.5853C40.2437 13.682 39.797 13.2614 38.8392 13.2614C38.4495 13.2614 37.499 13.3474 37.1008 14.1427C36.7359 14.8696 35.7232 18.162 35.2308 23.1971C35.2308 23.1971 31.3117 26.9914 27.1216 26.9914C25.5776 26.9914 24.3556 26.387 23.9127 25.2064C23.9127 25.2064 26.1543 24.035 27.2188 23.2938C29.9445 21.3959 31.9274 19.4619 31.9274 16.9784C31.9274 13.9397 29.1434 12.5714 26.8434 12.8734C22.8936 13.3918 19.5552 17.553 19.5552 22.3866C19.5552 26.9333 22.0745 30.2101 26.459 30.2101C31.5372 30.2101 35.0426 25.9989 35.0426 25.9989L34.937 27.9212C34.8717 28.9231 35.2823 30.2101 36.9546 30.2101C37.3986 30.2101 38.2092 30.068 38.6401 29.1163C41.2415 23.4016 43.9657 18.8693 43.9926 18.8246L44.0857 18.6701L44.5584 17.7582L45.2621 16.5776L44.6981 19.1116C44.5957 19.6897 43.6986 24.8312 43.5701 27.0982C43.5039 28.2427 43.503 29.369 43.9479 29.8515C44.1732 30.0968 44.5353 30.2101 45.0861 30.2101C46.3175 30.2101 47.0815 29.7819 47.357 28.9369C49.3617 22.8474 51.5219 18.7387 51.6131 18.5662L51.6977 18.4068L52.8313 16.1838C52.8313 16.1838 51.9371 21.2552 51.9371 24.7137C51.9371 26.3667 52.2606 29.3761 54.6035 29.9478C58.21 30.8281 60.4257 27.0761 60.4257 27.0761L60.6604 27.7335C61.6898 29.4701 63.4004 30.3886 65.608 30.3886C70.1822 30.3886 73.1382 26.8168 73.1382 21.2881C73.1382 17.858 71.5653 15.8929 71.5653 15.8929C71.5653 15.8929 73.3111 16.5087 74.5931 17.4314C75.982 18.4308 76.9685 19.4893 76.9685 19.4893L76.934 19.7153C76.8929 19.9785 76.8558 20.2436 76.8185 20.5117C76.6742 21.5724 76.5469 22.6844 76.4389 23.8182C76.3394 24.8749 76.288 25.8305 76.288 26.6576C76.288 27.1602 76.3151 27.6236 76.3727 28.0757C76.4229 28.4972 76.5262 28.8816 76.678 29.2154C76.7265 29.3174 77.1816 30.2101 78.3318 30.2101C79.0996 30.2101 79.5925 29.9312 79.956 29.082C83.5107 20.7755 86.3583 18.1134 86.6085 17.8488C87.2683 17.1511 86.9705 18.4497 86.9705 18.4497L86.9445 18.6206C86.9398 18.6482 86.5005 21.4616 86.4018 22.3172C86.3023 23.1611 86.2521 23.967 86.2521 24.7137C86.2521 27.0275 86.7672 29.6645 89.4632 30.0811C93.1485 30.6509 94.4254 27.759 94.4254 27.759C94.4254 27.759 95.7588 30.2101 98.907 30.2101C103.523 30.2101 104.953 26.671 104.953 26.671C105.439 28.8003 106.304 29.9478 108.386 29.9478C110.639 29.9478 112.204 27.4094 112.204 27.4094C112.204 27.4094 113.507 30.2101 116.692 30.2101C120.379 30.2101 122.263 27.3871 122.341 27.2689L122.768 26.5984C122.768 26.5984 123.969 29.644 127.064 29.819C129.991 29.9844 132.002 27.9495 132.002 27.9495ZM5.51846 29.0375C2.26357 28.9169 2.08401 26.3863 5.07335 25.7329C7.80492 25.1359 10.0831 26.0915 10.0831 26.0915C10.0831 26.0915 9.39381 29.1815 5.51846 29.0375ZM19.9725 3.45666C21.8532 3.61121 21.7118 6.22743 21.2001 7.86778C19.7003 12.6764 16.1129 12.8199 16.1129 12.8199C16.1129 12.8199 17.2478 3.23279 19.9725 3.45666ZM15.7952 15.1178C15.7952 15.1178 21.8252 15.1579 23.879 8.04536C25.0741 3.90602 23.3816 0.378188 19.8527 0.303564C16.2894 0.228249 13.5289 3.38319 12.2354 12.8125C12.2354 12.8125 8.79114 12.3581 7.26958 9.64195C6.5498 8.35675 5.4638 8.9549 5.80246 10.1763C6.94736 14.3064 12.0183 14.9714 12.0183 14.9714C12.0183 14.9714 11.8083 16.7996 11.4947 19.0377C11.1905 21.2089 10.6683 23.9408 10.6683 23.9408C10.6683 23.9408 7.46891 22.9292 4.0649 23.6402C-1.16622 24.7331 -1.74178 31.2189 4.65913 31.8594C12.1654 32.6103 13.5827 27.4202 13.5827 27.4202C13.5827 27.4202 15.0574 28.1365 17.1501 30.0077C19.4692 32.0812 20.529 33.3674 21.0098 32.9065C21.537 32.4012 20.3758 30.6367 18.2263 28.3867C15.7938 25.8405 14.1103 25.1833 14.1103 25.1833C14.1103 25.1833 14.5127 23.499 14.9514 20.766C15.4158 17.8732 15.7952 15.1178 15.7952 15.1178Z" fill="white"/>
</g>
<defs>
<clipPath id="clip0_1_292">
<rect width="145" height="33" fill="white"/>
</clipPath>
</defs>
</svg>
