<svg width="134" height="36" viewBox="0 0 134 36" fill="none" xmlns="http://www.w3.org/2000/svg">
<mask id="mask0_1_304" style="mask-type:luminance" maskUnits="userSpaceOnUse" x="0" y="0" width="134" height="34">
<path d="M133.024 0.442505H0.242676V33.3334H133.024V0.442505Z" fill="white"/>
</mask>
<g mask="url(#mask0_1_304)">
<path d="M52.5506 12.2981H56.7446V25.6508H52.5506V12.2981Z" fill="white"/>
<path d="M57.6211 12.298H61.6606V14.1236H61.7377C62.7154 12.6892 63.9762 11.9069 65.803 11.9069C68.6846 11.9069 70.3827 13.9932 70.3827 16.9663V25.6507H66.1889V17.827C66.1889 16.4186 65.4943 15.4536 64.1306 15.4536C62.7412 15.4536 61.8149 16.6272 61.8149 18.2701V25.6507H57.6211V12.298Z" fill="white"/>
<path d="M57.1634 8.72612C57.1634 7.31773 56.0371 6.17615 54.6477 6.17615C53.2584 6.17615 52.1319 7.31773 52.1319 8.72612C52.1319 10.1344 53.2584 11.276 54.6477 11.276C56.0371 11.276 57.1634 10.1344 57.1634 8.72612Z" fill="#E60023"/>
<path d="M99.8787 12.1053C99.7589 12.0943 99.6217 12.0895 99.4612 12.0895C97.866 12.0895 96.7855 12.7936 95.8591 14.3845H95.782V12.2981H91.7681V25.6507H95.962V19.6525C95.962 16.8732 97.4805 15.5854 99.8787 15.8101V12.1053Z" fill="white"/>
<path d="M120.46 17.2273C118.787 16.9144 117.295 16.7841 117.295 15.8452C117.295 15.0105 118.093 14.6194 119.122 14.6194C120.28 14.6194 121.077 14.9845 121.232 16.1842H125.091C124.886 13.5502 122.878 11.9071 119.148 11.9071C116.034 11.9071 113.461 13.3676 113.461 16.1842C113.461 19.3136 115.906 19.9395 118.196 20.3308C119.945 20.6439 121.54 20.7742 121.54 21.9738C121.54 22.8345 120.743 23.3039 119.482 23.3039C118.217 23.3039 117.381 22.7615 117.124 21.661H113.128C113.422 24.4059 115.799 26.0683 119.508 26.0683C122.956 26.0683 125.503 24.5557 125.503 21.6349C125.503 18.2184 122.776 17.6185 120.46 17.2273Z" fill="white"/>
<path d="M106.384 14.9322C107.748 14.9322 108.725 15.9493 108.88 17.5403H103.682C103.965 15.9493 104.789 14.9322 106.384 14.9322ZM106.616 22.9907C104.892 22.9907 103.914 21.8694 103.657 20.0699H113.125C113.151 17.3576 112.379 15.0365 110.81 13.5761C109.677 12.533 108.185 11.907 106.307 11.907C102.293 11.907 99.54 14.9581 99.54 18.9485C99.54 22.9907 102.216 26.0421 106.564 26.0421C108.236 26.0421 109.574 25.5988 110.681 24.8164C111.839 24.0079 112.61 22.8605 112.893 21.6608H108.803C108.442 22.4954 107.722 22.9907 106.616 22.9907Z" fill="white"/>
<path d="M132.889 22.5021C132.694 22.5099 132.433 22.5214 132.193 22.5214C131.293 22.5214 130.727 22.2604 130.727 21.2173V14.9582H132.889V12.298H130.727V8.07312H126.636V12.298H125.348V14.9582H126.636V22.1301C126.636 24.9989 128.385 25.8073 130.83 25.8073C131.762 25.8073 132.467 25.7365 132.889 25.6532V22.5021Z" fill="white"/>
<path d="M77.8721 22.5082C77.7047 22.5148 77.5117 22.5214 77.3313 22.5214C76.4309 22.5214 75.8647 22.2604 75.8647 21.2173V14.9582H77.8721V12.298H75.8647V8.07312H71.7738V12.298H70.4095V14.9582H71.7738V22.1301C71.7738 24.9989 73.5232 25.8073 75.9676 25.8073C76.7946 25.8073 77.4422 25.7515 77.8721 25.6808V22.5082Z" fill="white"/>
<path d="M87.0072 17.5403C86.8528 15.9494 85.875 14.9322 84.5114 14.9322C82.9162 14.9322 82.0928 15.9494 81.8098 17.5403H87.0072ZM77.6674 18.9485C77.6674 14.9584 80.4203 11.9071 84.4343 11.9071C86.3123 11.9071 87.8048 12.533 88.9369 13.5761C90.5064 15.0366 91.2781 17.3576 91.2524 20.07H81.7842C82.0412 21.8694 83.0191 22.9908 84.7431 22.9908C85.8493 22.9908 86.5697 22.4954 86.9298 21.6608H91.0209C90.7379 22.8605 89.966 24.0079 88.8081 24.8165C87.7019 25.5988 86.3639 26.0421 84.6915 26.0421C80.3432 26.0421 77.6674 22.9908 77.6674 18.9485Z" fill="white"/>
<path d="M45.2675 15.7667C46.9142 15.7667 47.8404 14.7757 47.8404 13.289C47.8404 11.8026 46.8884 10.8898 45.2675 10.8898H42.0511V15.7667H45.2675ZM37.8053 7.00391H45.0882C47.3265 7.00391 48.9732 7.62976 50.1053 8.72516C51.2889 9.84647 51.9579 11.4375 51.9579 13.3151C51.9579 16.888 49.5136 19.4178 45.7313 19.4178H42.0511V25.6508H37.8053V7.00391Z" fill="white"/>
<path d="M32.0479 16.888C32.0479 25.752 24.9585 32.9378 16.2137 32.9378C7.46873 32.9378 0.379482 25.752 0.379482 16.888C0.379482 8.02399 7.46873 0.838379 16.2137 0.838379C24.9585 0.838379 32.0479 8.02399 32.0479 16.888Z" fill="white"/>
<path d="M16.2136 0.837891C7.46871 0.837891 0.379482 8.02364 0.379482 16.8877C0.379482 23.6871 4.55309 29.4997 10.4433 31.8383C10.3049 30.5683 10.1798 28.6155 10.4982 27.2292C10.7859 25.9765 12.3549 19.2514 12.3549 19.2514C12.3549 19.2514 11.8813 18.2899 11.8813 16.8685C11.8813 14.6368 13.1575 12.9707 14.7464 12.9707C16.0973 12.9707 16.7498 13.9987 16.7498 15.2314C16.7498 16.6086 15.8848 18.6674 15.4385 20.5753C15.0655 22.1727 16.2289 23.4755 17.7833 23.4755C20.5975 23.4755 22.7609 20.4677 22.7609 16.1259C22.7609 12.2832 20.0366 9.59635 16.1467 9.59635C11.6414 9.59635 8.99693 13.0216 8.99693 16.5614C8.99693 17.9409 9.52118 19.42 10.1754 20.2241C10.3048 20.3831 10.3237 20.5224 10.2852 20.6845C10.165 21.1915 9.89785 22.2815 9.84541 22.5047C9.77636 22.7985 9.61593 22.8609 9.31584 22.7193C7.33826 21.7862 6.10183 18.8555 6.10183 16.5016C6.10183 11.4388 9.73093 6.78917 16.5641 6.78917C22.0569 6.78917 26.3255 10.7566 26.3255 16.0588C26.3255 21.5901 22.8848 26.0417 18.109 26.0417C16.5045 26.0417 14.9962 25.1968 14.4798 24.1987C14.4798 24.1987 13.6858 27.2632 13.4933 28.0141C13.1359 29.4081 12.1708 31.1555 11.5254 32.2217C13.0069 32.6865 14.5813 32.9373 16.2136 32.9373C24.9587 32.9373 32.0479 25.7515 32.0479 16.8877C32.0479 8.02364 24.9587 0.837891 16.2136 0.837891Z" fill="#E60023"/>
</g>
</svg>
