<svg width="70" height="33" viewBox="0 0 70 33" fill="none" xmlns="http://www.w3.org/2000/svg">
<g clip-path="url(#clip0_1_320)">
<mask id="mask0_1_320" style="mask-type:luminance" maskUnits="userSpaceOnUse" x="0" y="0" width="70" height="33">
<path d="M70 0H0V32.2271H70V0Z" fill="white"/>
</mask>
<g mask="url(#mask0_1_320)">
<path d="M11.4932 5.76379C8.70268 5.76379 6.90543 6.56697 5.39191 8.45681V6.37798H0V31.9847C0 31.9847 0.0945945 32.032 0.378379 32.0792C0.756756 32.1737 2.74324 32.5989 4.20947 31.3706C5.48647 30.2839 5.77028 29.0083 5.77028 27.5909V23.9058C7.3311 25.5594 9.0811 26.2681 11.5406 26.2681C16.8379 26.2681 20.9054 21.9688 20.9054 16.2522C20.9054 10.0631 16.9797 5.76379 11.4932 5.76379ZM10.4527 21.4019C7.47292 21.4019 5.1081 18.9452 5.1081 15.9687C5.1081 13.0395 7.89866 10.6773 10.4527 10.6773C13.4797 10.6773 15.7973 12.9923 15.7973 16.016C15.7973 19.0396 13.4324 21.4019 10.4527 21.4019Z" fill="white"/>
<path d="M28.5677 15.6381C28.5677 17.8586 28.8041 20.5515 30.9798 23.4807C31.0271 23.5279 31.1217 23.6696 31.1217 23.6696C30.223 25.1815 29.1351 26.2209 27.669 26.2209C26.5338 26.2209 25.3987 25.6067 24.4527 24.5673C23.4595 23.4335 22.9865 21.9688 22.9865 20.4098V0H28.5203L28.5677 15.6381Z" fill="white"/>
<path d="M55.7637 16.0159L49.2365 6.37793H55.9532L62.4327 16.0159L55.9532 25.6065H49.2365L55.7637 16.0159Z" fill="#EBAF00"/>
<path d="M64.1817 14.9293L69.9994 6.37793H63.2832L60.8713 9.9213L64.1817 14.9293Z" fill="white"/>
<path d="M60.8713 22.1106L62.006 23.6697C63.0941 25.3705 64.5132 26.2209 66.1684 26.2209C67.9184 26.1737 69.1479 24.6618 69.6213 24.0949C69.6213 24.0949 68.7699 23.339 67.6817 22.0633C66.2156 20.3625 64.2765 17.2444 64.2294 17.1027L60.8713 22.1106Z" fill="white"/>
<path d="M44.271 20.079C43.1359 21.1184 42.3791 21.6854 40.8183 21.6854C38.0278 21.6854 36.4197 19.701 36.1832 17.5278H50.9873C51.0816 17.2443 51.1293 16.8664 51.1293 16.2522C51.1293 10.2521 46.7305 5.76379 40.9602 5.76379C35.4737 5.76379 30.9805 10.3465 30.9805 16.0632C30.9805 21.7326 35.4737 26.2209 41.1021 26.2209C45.0278 26.2209 48.4331 24.0003 50.2778 20.079H44.271ZM41.0075 10.2993C43.4669 10.2993 45.3116 11.9056 45.7372 14.0316H36.3724C36.8453 11.8112 38.5953 10.2993 41.0075 10.2993Z" fill="white"/>
</g>
</g>
<defs>
<clipPath id="clip0_1_320">
<rect width="70" height="32.5253" fill="white"/>
</clipPath>
</defs>
</svg>
