<svg width="117" height="50" viewBox="0 0 117 50" fill="none" xmlns="http://www.w3.org/2000/svg">
<path d="M8.6092 18.7708C9.61027 18.3543 10.3511 17.7367 10.8446 16.9308C11.3651 16.0799 11.6294 15.0858 11.6294 13.9756C11.6289 13.3418 11.5184 12.7128 11.3031 12.1166C11.0848 11.516 10.7295 10.9504 10.2459 10.4649C9.76844 9.98439 9.13876 9.58894 8.37395 9.28561C7.60913 8.98229 6.67013 8.82812 5.57295 8.82812H0.200214C0.0900286 8.82812 0.00055093 8.91715 0 9.02734V25.8633C0 25.9735 0.0890289 26.063 0.199213 26.0635H2.54672C2.6569 26.063 2.74594 25.9735 2.74593 25.8633V19.1712H5.8062L9.36 25.9554C9.39404 26.0215 9.46211 26.0625 9.53619 26.0625H12.2621C12.3324 26.0622 12.3974 26.025 12.4333 25.9645C12.4692 25.904 12.4707 25.8291 12.4373 25.7672L8.6072 18.7597L8.6092 18.7708ZM8.75636 14.0497C8.75636 14.8806 8.5161 15.5193 8.02357 16.0038C7.53105 16.4883 6.77724 16.7306 5.77817 16.7306H2.74493V11.3248H5.72612C6.68014 11.3248 7.43394 11.5651 7.96551 12.0426C8.49708 12.5201 8.76637 13.1788 8.76637 14.0517L8.75636 14.0497ZM23.2619 15.4512C22.6831 14.8569 21.9924 14.3829 21.2297 14.0567C20.4519 13.7204 19.5939 13.5482 18.677 13.5482C17.744 13.5482 16.877 13.7184 16.0992 14.0567C15.3214 14.3951 14.6416 14.8636 14.079 15.4532C13.5152 16.0463 13.0655 16.7383 12.7526 17.4944C12.4323 18.2592 12.2721 19.0961 12.2721 19.9831C12.2721 20.87 12.4343 21.7049 12.7526 22.4687C13.073 23.2395 13.5214 23.9283 14.079 24.5109C14.6426 25.1115 15.3234 25.572 16.0992 25.9064C16.875 26.2407 17.748 26.4069 18.677 26.4069C19.5539 26.4144 20.423 26.2406 21.2297 25.8964C22.0065 25.561 22.6912 25.0925 23.2619 24.5019C23.8349 23.9127 24.2896 23.2191 24.6013 22.4587C24.9216 21.6919 25.0848 20.855 25.0848 19.973C25.0848 19.0911 24.9226 18.2542 24.6013 17.4854C24.2885 16.7255 23.8339 16.0321 23.2619 15.4422V15.4512ZM18.675 24.0464C18.1013 24.0464 17.5738 23.9313 17.1373 23.703C16.6886 23.4762 16.2895 23.1625 15.9631 22.78C15.6347 22.3946 15.3824 21.9572 15.2173 21.4787C15.0478 20.9976 14.9615 20.4911 14.962 19.9811C14.9624 19.4655 15.0487 18.9536 15.2173 18.4664C15.3782 17.9914 15.6271 17.5509 15.951 17.168C16.2714 16.7926 16.6658 16.4873 17.1263 16.2671C17.5868 16.0468 18.1073 15.9227 18.676 15.9227C19.2446 15.9227 19.7641 16.0388 20.2136 16.2671C20.663 16.4936 21.0626 16.8078 21.3889 17.1911C21.7177 17.5776 21.971 18.0225 22.1356 18.5025C22.3015 18.981 22.3867 19.4837 22.3879 19.9901C22.3878 20.5041 22.3026 21.0145 22.1356 21.5007C21.9739 21.9764 21.7243 22.4175 21.3999 22.8011C21.0767 23.1825 20.6778 23.4927 20.2286 23.712C19.7581 23.9443 19.2506 24.0554 18.675 24.0554V24.0464ZM34.8082 19.9881C34.409 19.6848 33.9653 19.445 33.4928 19.2773C32.9766 19.0898 32.4502 18.9318 31.9161 18.8038C30.9891 18.5896 30.2313 18.3593 29.6637 18.1201C29.1602 17.9198 28.9149 17.6025 28.9149 17.1821C28.9149 16.7186 29.0951 16.3952 29.4655 16.196C29.8659 15.9758 30.4285 15.8657 31.1132 15.8657C31.79 15.8657 32.3886 15.9718 32.8911 16.18C33.3917 16.3802 33.8271 16.6485 34.1595 16.9508C34.1995 16.9879 34.2546 17.0069 34.3097 17.0009C34.3647 16.9963 34.4155 16.9691 34.4498 16.9258L35.6851 15.3611C35.7512 15.278 35.7402 15.1579 35.6601 15.0878C35.1095 14.6023 34.4538 14.2199 33.716 13.9516C32.9782 13.6833 32.0993 13.5492 31.0872 13.5492C30.4934 13.5484 29.9022 13.6272 29.3293 13.7834C28.7839 13.9311 28.266 14.166 27.7957 14.4792C27.3382 14.7865 26.9648 15.1719 26.6875 15.6254C26.4102 16.0789 26.2671 16.6245 26.2671 17.2321C26.2671 17.8207 26.3872 18.3333 26.6204 18.7537C26.8478 19.1675 27.1567 19.5308 27.5284 19.8219C27.907 20.1185 28.3295 20.3542 28.7807 20.5206C29.2282 20.6904 29.6872 20.8283 30.1542 20.9331L31.7479 21.3455C32.1554 21.4656 32.4887 21.5998 32.749 21.7439C32.9772 21.8771 33.1494 22.0262 33.2295 22.1844C33.3214 22.3702 33.3687 22.5748 33.3676 22.782C33.3676 23.2245 33.1674 23.5429 32.722 23.7511C32.2485 23.9813 31.6408 24.0954 30.915 24.0954C30.1722 24.0954 29.5115 23.9733 28.9509 23.7331C28.4099 23.5061 27.9172 23.1779 27.4994 22.766C27.4616 22.7268 27.4087 22.7056 27.3542 22.708C27.2998 22.709 27.2481 22.7321 27.2111 22.772L25.8296 24.2877C25.7593 24.3646 25.7597 24.4826 25.8306 24.5589C26.9748 25.7903 28.7037 26.4149 30.9731 26.4149C31.6143 26.4153 32.2532 26.3367 32.8751 26.1807C33.4888 26.0265 34.0294 25.7863 34.5009 25.4719C34.9656 25.1661 35.357 24.7614 35.6471 24.2867C35.9344 23.8101 36.0795 23.2525 36.0795 22.6309C36.0795 22.0322 35.9664 21.5097 35.7422 21.0742C35.5209 20.6498 35.2093 20.279 34.8292 19.9881H34.8082ZM47.5688 15.7766C47.0821 15.1102 46.4506 14.5629 45.7218 14.1759C44.973 13.7754 44.0661 13.5732 43.026 13.5732C42.145 13.5732 41.3242 13.7404 40.5864 14.0707C39.8486 14.4011 39.2049 14.8516 38.6673 15.4152C38.1297 15.9788 37.7083 16.6545 37.414 17.4243C37.1156 18.2175 36.9653 19.0586 36.9705 19.906C36.9705 20.864 37.1237 21.7549 37.426 22.5518C37.7283 23.3487 38.1648 24.0394 38.7274 24.614C39.29 25.1886 39.9617 25.6351 40.7415 25.9474C41.5214 26.2598 42.3853 26.4179 43.3143 26.4179C44.0651 26.4179 44.7498 26.3338 45.3464 26.1697C45.9221 26.0145 46.4456 25.8193 46.9001 25.589C47.3406 25.3648 47.707 25.1255 47.9863 24.8803L48.6109 24.2836C48.6807 24.2062 48.6794 24.0882 48.6079 24.0124L47.3196 22.6509C47.2815 22.6109 47.2194 22.5908 47.1714 22.5888C47.1233 22.5868 47.0713 22.6139 47.0262 22.6559C46.759 22.9562 46.3115 23.2726 45.6948 23.5969C45.0872 23.9153 44.2933 24.0774 43.3373 24.0774C42.8707 24.0797 42.4082 23.9906 41.9758 23.8151C41.552 23.6446 41.1616 23.4006 40.8226 23.0944C40.4877 22.7924 40.2156 22.4274 40.0218 22.0202C39.8516 21.6699 39.7485 21.2824 39.7134 20.869H48.7521C48.8522 20.869 48.9523 20.7689 48.9523 20.6688C48.9539 19.7827 48.8412 18.9002 48.6169 18.043C48.3947 17.1991 48.0363 16.4343 47.5658 15.7806L47.5688 15.7766ZM43.026 15.8907C44.027 15.8907 44.7618 16.183 45.3024 16.7916C45.7949 17.3442 46.1033 18.0129 46.1893 18.7818H39.7074C39.7414 18.4556 39.8241 18.1364 39.9527 17.8348C40.109 17.4666 40.3354 17.1324 40.6194 16.8507C40.9167 16.5573 41.2673 16.3235 41.6525 16.162C42.0873 15.9819 42.5544 15.8927 43.025 15.8997L43.026 15.8907ZM65.6942 24.3257C65.542 23.9823 65.4359 23.4317 65.4339 23.4267C65.4198 23.3556 65.3684 23.2976 65.2994 23.2752C65.2305 23.2528 65.1548 23.2694 65.1016 23.3186C64.8637 23.5496 64.5915 23.7425 64.2947 23.8902C64.0374 24.0104 63.7011 24.0734 63.2936 24.0734C62.8131 24.0734 62.4527 23.9233 62.1954 23.6159C61.9352 23.3016 61.802 22.6899 61.802 21.799V16.228H65.0355C65.1453 16.2275 65.2341 16.1386 65.2347 16.0288V14.1268C65.2341 14.017 65.1453 13.9281 65.0355 13.9276H61.802V10.2887C61.8019 10.2206 61.7672 10.1573 61.7099 10.1205C61.6519 10.0845 61.5798 10.0785 61.5097 10.1075L59.2373 11.1586C59.1667 11.1913 59.1214 11.262 59.1212 11.3398V13.9286H54.2019V10.2897C54.2018 10.2216 54.1671 10.1583 54.1098 10.1215C54.0517 10.0845 53.9797 10.0815 53.9096 10.1085L51.6372 11.1596C51.5665 11.1923 51.5212 11.263 51.521 11.3408V13.9296H49.601C49.4912 13.9301 49.4023 14.019 49.4018 14.1288V16.0308C49.4023 16.1406 49.4912 16.2295 49.601 16.23H51.521V22.0382C51.521 23.5118 51.8214 24.617 52.439 25.3218C53.0567 26.0385 54.0287 26.4029 55.3301 26.4029C56.0569 26.4029 56.6986 26.3028 57.2361 26.0726C57.6702 25.8958 58.07 25.6444 58.4174 25.3298C58.4869 25.2673 58.5039 25.1651 58.4585 25.0835C58.4565 25.0805 58.2462 24.7031 58.0841 24.3377C57.9701 24.0466 57.883 23.7457 57.8238 23.4387C57.8096 23.3674 57.7579 23.3093 57.6886 23.2871C57.6194 23.2648 57.5435 23.2819 57.4904 23.3316C57.2201 23.5859 56.9498 23.7781 56.6826 23.9022C56.4293 24.0224 56.0939 24.0844 55.6845 24.0844C55.201 24.0844 54.8436 23.9343 54.5883 23.6269C54.325 23.3106 54.1919 22.699 54.1919 21.81V16.228H59.1112V22.0362C59.1112 23.5108 59.4115 24.615 60.0321 25.3198C60.6488 26.0365 61.6208 26.4009 62.9212 26.4009C63.65 26.4009 64.2907 26.3008 64.8273 26.0706C65.2615 25.8942 65.661 25.6423 66.0075 25.3268C66.0761 25.2642 66.0927 25.1626 66.0476 25.0815C65.9138 24.8378 65.7895 24.5891 65.6752 24.3357L65.6942 24.3257ZM77.1775 25.8073L77.1574 24.8262V17.9989C77.1574 16.5974 76.6969 15.4983 75.786 14.7304C74.889 13.9696 73.6437 13.5842 72.086 13.5842C71.5076 13.5785 70.9299 13.6261 70.3602 13.7264C69.8616 13.8205 69.4091 13.9426 69.0157 14.0898C68.6223 14.2369 68.2679 14.3971 67.9706 14.5703C67.7061 14.7255 67.4535 14.9002 67.2148 15.0928C67.1349 15.1587 67.1184 15.2746 67.1768 15.3601L68.2379 16.8998C68.2679 16.9438 68.315 16.9738 68.368 16.9828C68.4206 16.992 68.4747 16.9797 68.5182 16.9488C68.8586 16.7056 69.289 16.4603 69.7996 16.222C70.2931 15.9918 70.9778 15.8737 71.8337 15.8737C72.6977 15.8737 73.3854 16.0539 73.8759 16.4042C74.3534 16.7446 74.5767 17.3072 74.5767 18.1231V18.3233L74.3644 18.3033L73.6637 18.2532L72.8028 18.2012L71.9318 18.1751C70.23 18.1751 68.8986 18.5735 67.9806 19.3604C67.0546 20.1542 66.5851 21.2224 66.5851 22.5398C66.5851 23.2425 66.7153 23.8472 66.9736 24.3357C67.2318 24.8242 67.5702 25.2367 67.9906 25.539C68.4041 25.8393 68.8686 26.0716 69.3721 26.2037C69.8621 26.3333 70.3669 26.3989 70.8737 26.3989C71.6558 26.398 72.4304 26.2478 73.1562 25.9564C73.7114 25.739 74.2141 25.406 74.6307 24.9794L74.6628 25.8804C74.6671 25.9874 74.7549 26.0721 74.862 26.0726H76.9802C77.1004 26.0726 77.1885 25.9725 77.1885 25.8723C77.1883 25.8495 77.1843 25.8268 77.1765 25.8053L77.1775 25.8073ZM69.3241 21.7279C69.3991 21.4817 69.5393 21.2544 69.7425 21.0542C69.9497 20.848 70.239 20.6718 70.6054 20.5316C70.9718 20.3915 71.4734 20.3174 72.087 20.3174L72.9079 20.3414L73.7128 20.3915L74.3705 20.4546L74.5877 20.4846V21.6558C74.5877 21.9762 74.5026 22.2915 74.3374 22.5948C74.1622 22.9112 73.932 23.1885 73.6527 23.4217C73.3734 23.655 73.037 23.8522 72.6516 23.9923C72.2756 24.1364 71.876 24.2094 71.4734 24.2076C70.7496 24.2076 70.179 24.0554 69.7766 23.7551C69.3881 23.4548 69.1999 23.0403 69.1999 22.4617C69.2031 22.2117 69.2429 21.9634 69.3181 21.7249L69.3241 21.7279ZM28.1731 37.2575C27.6926 36.8371 27.144 36.4987 26.5414 36.2514C25.9107 35.9972 25.26 35.7869 24.6063 35.6258L22.7243 35.1082C22.1517 34.926 21.6631 34.7078 21.2677 34.4315C20.8673 34.1542 20.5369 33.8278 20.3167 33.4605C20.0885 33.078 19.9733 32.6196 19.9733 32.095C19.976 31.7244 20.0519 31.358 20.1966 31.0168C20.3407 30.6565 20.577 30.3291 20.8953 30.0408C21.1956 29.7605 21.5961 29.5323 22.0626 29.3601C22.5291 29.1879 23.0817 29.1028 23.7043 29.1028C24.327 29.1028 24.8856 29.1779 25.3681 29.326C25.8098 29.4568 26.234 29.6407 26.6315 29.8736C26.9858 30.0808 27.2922 30.3041 27.5344 30.5363L27.6646 30.6645C27.7296 30.7325 27.8367 30.7375 27.9068 30.6725L28.8678 29.7915C28.9379 29.7285 28.9429 29.6214 28.8809 29.5493L28.7177 29.3691L28.6126 29.255C28.3593 28.9877 28.0179 28.7244 27.5985 28.4711C27.172 28.2159 26.6425 27.9936 26.0248 27.8104C25.4242 27.6302 24.6714 27.5371 23.8225 27.5371C22.8594 27.5371 22.0075 27.6673 21.2897 27.9255C20.572 28.1838 19.9683 28.5262 19.4878 28.9466C19.0315 29.3467 18.6703 29.8437 18.4307 30.4012C18.1954 30.9611 18.0752 31.5627 18.0773 32.1701C18.0773 32.8428 18.1974 33.4514 18.4297 33.977C18.6643 34.5057 19.0031 34.9817 19.4258 35.3765C19.8845 35.8024 20.4104 36.1494 20.9824 36.4036C21.6422 36.7019 22.3341 36.9229 23.0446 37.0623C24.5532 37.3887 25.6814 37.8071 26.4933 38.3407C27.3742 38.9173 27.8207 39.7872 27.8207 40.9254C27.8207 41.9766 27.4203 42.8245 26.6625 43.4461C25.9217 44.0488 24.8906 44.3541 23.5952 44.3541C22.9715 44.3541 22.3899 44.274 21.8654 44.1208C21.3647 43.9753 20.8839 43.7685 20.4338 43.5052C20.0176 43.2629 19.6301 42.9745 19.2786 42.6453L18.7711 42.1397C18.706 42.0727 18.6009 42.0697 18.5308 42.1317L17.4657 43.0998C17.4315 43.1306 17.4113 43.1739 17.4096 43.2199C17.4076 43.2659 17.4236 43.32 17.4546 43.344C17.6549 43.5642 17.8811 43.7845 18.1254 43.9947C18.5228 44.3451 19.0063 44.6754 19.5639 44.9738C20.1145 45.2721 20.7352 45.5203 21.4059 45.7125C22.0666 45.9007 22.8214 45.9968 23.6483 45.9968C24.5132 45.9968 25.3301 45.8707 26.0759 45.6204C26.8146 45.3702 27.4613 45.0148 27.9959 44.5643C28.5216 44.1265 28.9513 43.585 29.2583 42.9736C29.5586 42.373 29.7107 41.7023 29.7107 40.9775C29.7107 40.1036 29.5706 39.3608 29.2983 38.7681C29.018 38.1695 28.6376 37.6669 28.1691 37.2465L28.1731 37.2575ZM38.413 44.4512L38.356 44.3511L38.1608 44.0207C38.1367 43.9777 38.0967 43.9477 38.0486 43.9376C38.0006 43.9276 37.9505 43.9356 37.9115 43.9637C37.7514 44.0775 37.5816 44.177 37.404 44.261C36.9595 44.4732 36.54 44.5613 36.0856 44.5613C35.3818 44.5613 34.8242 44.3211 34.4338 43.8475C34.0494 43.3891 33.8632 42.6162 33.8632 41.487V34.8199H37.422C37.5171 34.8199 37.5952 34.7428 37.5952 34.6467V33.7037C37.5952 33.6086 37.5181 33.5305 37.422 33.5305H33.8632V29.8466C33.8632 29.7865 33.8331 29.7325 33.7831 29.7004C33.733 29.6684 33.671 29.6644 33.6179 29.6904L32.2625 30.3161C32.2024 30.3461 32.1624 30.4162 32.1624 30.4733V33.5315H30.0301C29.935 33.5315 29.8569 33.6096 29.8569 33.7047V34.6477C29.8569 34.7428 29.934 34.8209 30.0301 34.8209H32.1624V41.7283C32.1624 43.1818 32.4497 44.251 33.0163 44.9067C33.5669 45.5474 34.4708 45.8707 35.7041 45.8707C36.4179 45.8707 37.0376 45.7656 37.5461 45.5584C37.9095 45.4021 38.2552 45.2075 38.5772 44.9778C38.6153 44.9517 38.6403 44.9117 38.6473 44.8777C38.6543 44.8436 38.6453 44.7856 38.6173 44.7475L38.413 44.4332V44.4512ZM49.625 35.0131C49.0584 34.4325 48.3787 33.966 47.6059 33.6316C46.833 33.2973 45.9811 33.1291 45.0691 33.1291C44.1382 33.1291 43.2672 33.2993 42.5064 33.6326C41.7536 33.954 41.0733 34.4238 40.5063 35.0141C39.9457 35.6148 39.4992 36.2895 39.1849 37.0503C38.8705 37.8111 38.7084 38.652 38.7084 39.5229C38.7084 40.3939 38.8685 41.2368 39.1849 41.9956C39.4961 42.7507 39.9448 43.4415 40.5083 44.0327C41.0669 44.6174 41.7396 45.0819 42.5104 45.4142C43.2812 45.7466 44.1362 45.9148 45.0732 45.9148C45.9911 45.9148 46.8451 45.7466 47.6099 45.4142C48.3747 45.0819 49.0564 44.6184 49.63 44.0307C50.1936 43.4481 50.6311 42.7634 50.9614 41.9946C51.2788 41.2318 51.44 40.3999 51.44 39.5219C51.44 38.644 51.2798 37.8141 50.9624 37.0493C50.6451 36.2845 50.1986 35.6007 49.631 35.0141L49.625 35.0131ZM45.0681 44.5433C44.3524 44.5433 43.6967 44.3951 43.1231 44.1058C42.5575 43.8175 42.0669 43.4291 41.6645 42.9546C41.2621 42.4801 40.9467 41.9415 40.7415 41.3529C40.5359 40.765 40.431 40.1467 40.4312 39.5239C40.4323 38.8972 40.5365 38.2749 40.7395 37.682C40.939 37.0947 41.2474 36.5503 41.6485 36.0772C42.0547 35.603 42.553 35.2161 43.1131 34.94C43.6987 34.6397 44.3564 34.5016 45.0681 34.5016C45.7799 34.5016 46.4366 34.6497 47.0102 34.939C47.5758 35.2273 48.0684 35.6148 48.4738 36.0903C48.8792 36.5658 49.1906 37.1084 49.3948 37.71C49.5972 38.2927 49.7014 38.905 49.7031 39.5219C49.7031 40.1466 49.599 40.7653 49.3948 41.3619C49.1999 41.9517 48.8918 42.4978 48.4878 42.9696C48.0813 43.4435 47.5827 43.8297 47.0222 44.1048C46.4446 44.4051 45.7859 44.5433 45.0661 44.5433H45.0681ZM59.3804 33.2372C58.8399 33.2372 58.3493 33.3043 57.9189 33.4374C57.4724 33.5806 57.091 33.7518 56.7877 33.946C56.0329 34.4265 55.4663 35.0091 54.8856 35.8951L54.7505 36.0953L54.6484 33.6947C54.6444 33.6026 54.5683 33.5295 54.4762 33.5295H53.2249C53.1788 33.5295 53.1248 33.5496 53.1017 33.5816C53.0787 33.6136 53.0517 33.6597 53.0517 33.7057L53.0617 34.4465V45.3442C53.0617 45.4393 53.1388 45.5173 53.2349 45.5173H54.5883C54.6834 45.5173 54.7615 45.4403 54.7615 45.3442V39.9754C54.7615 39.3307 54.8286 38.69 54.9617 38.0704C55.1019 37.4277 55.3251 36.8521 55.6274 36.3606C55.9358 35.848 56.3622 35.4215 56.8958 35.0922C57.4294 34.7628 58.0951 34.5967 58.8779 34.5967C59.915 34.5967 60.7399 34.92 61.3305 35.5577C61.9071 36.1884 62.2015 37.1594 62.2015 38.4408V45.3462C62.2015 45.4413 62.2785 45.5193 62.3746 45.5193H63.7261C63.8212 45.5193 63.8993 45.4423 63.8993 45.3462V38.2386C63.8993 36.6729 63.5239 35.4356 62.7831 34.5326C62.0493 33.6477 60.9331 33.2172 59.3744 33.2172L59.3804 33.2372ZM77.2275 37.5398C77.0043 36.6989 76.6509 35.9381 76.1764 35.2794C75.7008 34.628 75.0828 34.0939 74.3695 33.7177C73.6457 33.3313 72.7547 33.1351 71.7226 33.1351C70.8437 33.1351 70.0348 33.2993 69.3151 33.6226C68.6037 33.9368 67.9606 34.3871 67.422 34.948C66.8806 35.5204 66.4598 36.1959 66.1847 36.9342C65.887 37.7278 65.737 38.5692 65.7422 39.4168C65.7422 40.3828 65.8954 41.2788 66.1977 42.0797C66.4785 42.8389 66.9119 43.5325 67.4711 44.1178C68.0157 44.6804 68.6864 45.1209 69.4552 45.4192C70.224 45.7175 71.091 45.8837 72.028 45.8837C72.7938 45.8837 73.4845 45.8006 74.0801 45.6375C74.6758 45.4743 75.2043 45.2771 75.6518 45.0488C76.0863 44.8286 76.4527 44.5984 76.713 44.3611L76.9632 44.1369C76.9973 44.1048 77.0183 44.0618 77.0203 44.0167C77.0223 43.9717 77.0053 43.9246 76.9732 43.8906L76.3255 43.2059C76.2635 43.1398 76.1614 43.1328 76.0913 43.1899C75.777 43.4451 75.3855 43.6924 74.895 43.9477C74.1502 44.3431 73.1932 44.5423 72.055 44.5423C71.4688 44.5439 70.8879 44.432 70.3442 44.2129C69.8106 43.9927 69.3291 43.6924 68.9146 43.317C68.4943 42.9362 68.1523 42.4772 67.9075 41.9655C67.6526 41.4506 67.5132 40.8862 67.4991 40.3118L67.4851 39.9153H77.3827C77.4297 39.9153 77.4758 39.8953 77.5078 39.8613C77.5398 39.8273 77.5579 39.7812 77.5549 39.7332C77.5204 38.9901 77.4104 38.2525 77.2265 37.5318L77.2275 37.5398ZM71.7236 34.4505C72.967 34.4505 73.951 34.8439 74.6468 35.6198C75.3245 36.3826 75.7079 37.3096 75.788 38.3747L75.818 38.7871H67.4721L67.4901 38.3867C67.5105 37.8817 67.6232 37.3846 67.8225 36.9202C68.0215 36.4498 68.3102 36.0228 68.6724 35.6628C69.0348 35.2984 69.4772 35.0021 69.9858 34.7819C70.4943 34.5616 71.0789 34.4495 71.7136 34.4495L71.7236 34.4505Z" fill="white"/>
<path d="M114.32 43.4766C114.535 43.4766 114.745 43.5317 114.949 43.6418C115.153 43.7519 115.312 43.9101 115.427 44.1143C115.541 44.3185 115.597 44.5348 115.597 44.755C115.597 44.9779 115.539 45.1968 115.429 45.3907C115.32 45.5904 115.156 45.7547 114.956 45.8642C114.753 45.9763 114.542 46.0344 114.319 46.0344C114.097 46.0344 113.886 45.9783 113.683 45.8642C113.483 45.7549 113.319 45.5905 113.209 45.3907C113.096 45.1875 113.039 44.9762 113.039 44.755C113.039 44.5302 113.098 44.3093 113.21 44.1143C113.321 43.9138 113.487 43.7496 113.689 43.6418C113.893 43.5417 114.103 43.4766 114.317 43.4766H114.32ZM114.32 43.6889C114.14 43.6889 113.966 43.7349 113.796 43.827C113.627 43.9172 113.489 44.0542 113.396 44.2214C113.303 44.3841 113.253 44.5683 113.252 44.756C113.253 44.9418 113.301 45.1243 113.393 45.2856C113.488 45.4557 113.62 45.5859 113.789 45.68C114.118 45.8675 114.521 45.8675 114.85 45.68C115.017 45.5887 115.154 45.4519 115.245 45.2856C115.339 45.1154 115.386 44.9402 115.386 44.755C115.385 44.5674 115.336 44.3832 115.242 44.2204C115.151 44.053 115.012 43.9159 114.844 43.826C114.684 43.7367 114.504 43.6892 114.32 43.6879V43.6889ZM113.76 45.4628V44.0873H114.232C114.35 44.0821 114.469 44.0949 114.583 44.1253C114.653 44.1495 114.714 44.1963 114.756 44.2585C114.797 44.3174 114.82 44.3876 114.82 44.4597C114.82 44.5598 114.784 44.6479 114.713 44.722C114.642 44.796 114.546 44.8381 114.427 44.8471C114.47 44.8641 114.509 44.8889 114.544 44.9202C114.599 44.9742 114.667 45.0653 114.747 45.1925L114.914 45.4628H114.644L114.522 45.2455C114.426 45.0753 114.348 44.9682 114.289 44.9252C114.249 44.8952 114.189 44.8771 114.112 44.8771H113.982V45.4618H113.762L113.76 45.4628ZM113.98 44.6889H114.25C114.38 44.6889 114.467 44.6689 114.514 44.6309C114.561 44.5928 114.584 44.5408 114.584 44.4787C114.584 44.4387 114.574 44.4016 114.55 44.3786C114.526 44.3556 114.496 44.3225 114.456 44.3065C114.416 44.2905 114.341 44.2825 114.233 44.2825H113.981V44.6979L113.98 44.6889Z" fill="white"/>
<path d="M85.4117 46.2294C85.6439 48.2386 87.8903 48.9524 89.5681 49.2927L90.2789 49.4289C91.4902 49.6551 92.308 49.6141 92.6894 49.569L93.1559 49.5049L97.2603 48.9163L103.935 48.0314L105.961 47.7531C106.393 47.6894 106.817 47.5789 107.226 47.4237C108.619 46.8892 109.994 45.9722 110.887 44.7549L114.14 40.2701L114.674 39.5223L115.51 38.3691C115.71 38.0517 115.907 37.6603 115.91 37.6563L116.359 36.5591C116.622 35.7583 116.822 34.9274 116.874 34.0815C116.954 32.7661 116.694 31.4086 116.568 30.1092L115.279 16.9151L115.203 16.3465C115.16 16.0602 114.977 14.9801 114.401 13.093L113.227 9.61333L112.326 7.25381L111.377 4.88628C110.832 3.67999 109.946 2.78403 109.575 2.41364C108.594 1.45661 107.457 0.281362 106.045 0.0360997C105.614 -0.0389803 105.182 0.00606768 104.769 0.143214L104.242 0.339424L101.861 1.20835L100.498 1.71389C98.9361 2.29751 97.3945 3.5058 96.4675 4.89429L87.0314 18.639C86.9173 18.8092 86.7751 19.0244 86.5639 19.4468C86.4881 19.5989 86.4166 19.7531 86.3497 19.9093L86.1515 20.3979C85.8821 21.0821 85.6913 21.7948 85.5828 22.5221C85.5561 22.7112 85.5367 22.9012 85.5248 23.0917L85.5178 23.302C85.5128 23.388 85.5178 23.4741 85.5168 23.5592L85.4517 43.4565C85.4467 44.3574 85.2965 45.3265 85.4087 46.2315" fill="url(#paint0_linear_1_283)"/>
<path d="M86.4618 47.6681C86.5714 47.7089 86.6858 47.7355 86.8021 47.7472C86.9242 47.7592 87.0474 47.7554 87.1685 47.7362L91.1007 47.1175L93.6294 46.7411L98.7008 46.0063L100.843 45.686C101.197 45.6319 101.59 45.5058 101.996 45.3306C102.403 45.1554 102.827 44.9202 103.235 44.6549C104.011 44.1464 104.756 43.5238 105.299 42.7669L106.867 40.5885L107.534 39.6655L108.442 38.4062L109.113 37.4522L109.273 37.2249L110.13 36.0537C110.375 35.7133 110.607 35.2969 110.811 34.8374C111.015 34.3779 111.197 33.8794 111.341 33.3708C111.484 32.8769 111.591 32.3734 111.661 31.8642C111.726 31.3787 111.747 30.9202 111.713 30.5228L110.298 13.1612C110.23 12.3173 109.998 11.2192 109.678 10.0329L108.57 6.42909L106.781 1.50683C106.678 1.22653 106.573 0.946228 106.431 0.685949C106.367 0.571827 106.301 0.468717 106.226 0.383626C106.151 0.298535 106.072 0.229462 105.984 0.183412C105.892 0.131524 105.793 0.093091 105.69 0.06929C105.584 0.044264 105.47 0.03125 105.35 0.03125C105.224 0.03125 105.099 0.044457 104.976 0.06929C104.845 0.094317 104.712 0.131357 104.575 0.182411L103 0.765038L101.745 1.21552L100.193 1.79013C99.5177 2.0454 98.8991 2.46485 98.3335 2.90632C98.0117 3.15765 97.7039 3.42634 97.4115 3.71118C97.1232 3.99148 96.8629 4.28179 96.6436 4.56209L96.5435 4.68222L96.4564 4.80635L86.9723 18.595C86.7741 18.8813 86.5839 19.2277 86.4097 19.6041C86.0636 20.3485 85.804 21.1301 85.6359 21.9336C85.5558 22.327 85.4957 22.7275 85.4957 23.1289V23.3131V23.4983L85.4947 23.6845L85.4937 23.8687L85.3555 45.752C85.3546 45.9082 85.3656 46.0584 85.3886 46.2025C85.4109 46.3411 85.4454 46.4775 85.4917 46.61C85.5741 46.8544 85.7048 47.0798 85.8761 47.2727C86.0333 47.4469 86.2265 47.5891 86.4488 47.6731L86.4618 47.6681Z" fill="url(#paint1_linear_1_283)"/>
<path d="M108.998 12.834L110.36 29.5318C110.392 29.9152 110.33 31.0795 110.27 31.548C110.21 32.0165 110.101 32.509 109.961 32.9975C109.821 33.486 109.648 33.9685 109.461 34.407C109.274 34.8455 109.04 35.2479 108.805 35.5763L107.183 37.8407L104.16 42.0452C103.64 42.776 102.922 43.3736 102.175 43.8621C101.782 44.1194 101.376 44.3406 100.974 44.5128C100.571 44.685 100.203 44.8131 99.8626 44.8552L85.8906 47.2708C86.0468 47.448 86.2432 47.5853 86.4632 47.6712C86.5714 47.7112 86.6855 47.7383 86.8036 47.7513C86.9257 47.7632 87.0488 47.7595 87.17 47.7403L91.1022 47.1226L93.6309 46.7462L98.7033 46.0104L100.846 45.6901C101.199 45.635 101.591 45.5099 101.999 45.3337C102.406 45.1575 102.83 44.9232 103.237 44.658C104.014 44.1504 104.759 43.5268 105.301 42.77L106.869 40.5916L107.537 39.6686L108.445 38.4093L109.115 37.4563L109.276 37.226L109.442 36.9998L110.143 36.0548C110.388 35.7144 110.619 35.298 110.823 34.8385C111.035 34.3629 111.213 33.8728 111.355 33.3719C111.497 32.878 111.604 32.3745 111.674 31.8653C111.739 31.3798 111.76 30.9213 111.726 30.5239L110.313 13.1623C110.245 12.3184 110.012 11.2182 109.694 10.033L108.587 6.42913L106.798 1.50687C106.695 1.22657 106.588 0.94627 106.446 0.685989C106.388 0.578449 106.319 0.477143 106.24 0.383667C106.167 0.297575 106.087 0.230503 106 0.183453C105.908 0.131564 105.81 0.0931305 105.707 0.0693305C105.595 0.0434465 105.481 0.0306795 105.366 0.0312695C106.379 3.29729 107.395 6.56245 108.414 9.8268C108.719 10.968 108.944 12.0241 109.009 12.836L108.998 12.834Z" fill="white"/>
<path d="M110.551 16.2067L110.32 13.1635C110.32 13.1595 110.302 13.1534 110.302 13.1484C97.0042 15.8513 88.5032 22.6156 85.496 25.9862L85.4909 26.765C88.5943 23.6567 98.8092 17.3289 110.553 16.2067H110.551ZM111.399 26.3555L111.296 25.2374C97.5809 27.2815 88.2709 33.5943 85.4279 36.3232L85.4219 37.2792C88.1248 34.9137 98.5379 28.7371 111.486 27.694C111.45 27.2565 111.436 26.815 111.399 26.3555Z" fill="#2978C8"/>
<path d="M110.581 16.567L110.351 13.75C96.8365 16.4549 88.4475 23.2962 85.4894 26.6508L85.4844 27.3996C88.4105 24.3163 96.2979 18.5461 110.581 16.568" fill="white"/>
<path d="M111.376 26.3425L111.338 25.875C96.8292 28.0393 88.1359 34.2339 85.424 36.9268L85.418 37.8578C87.9357 35.6324 97.4448 30.2096 111.576 28.8081L111.376 26.3405" fill="white"/>
<defs>
<linearGradient id="paint0_linear_1_283" x1="107.334" y1="0.918303" x2="92.797" y2="46.9748" gradientUnits="userSpaceOnUse">
<stop stop-color="#058ED4"/>
<stop offset="1" stop-color="#002D56"/>
</linearGradient>
<linearGradient id="paint1_linear_1_283" x1="78.0589" y1="31.1331" x2="111.068" y2="26.7474" gradientUnits="userSpaceOnUse">
<stop stop-color="#016FC5"/>
<stop offset="0.552024" stop-color="#2A9CE3"/>
<stop offset="1" stop-color="#47BBF7"/>
</linearGradient>
</defs>
</svg>
