<svg width="26" height="26" viewBox="0 0 26 26" fill="none" xmlns="http://www.w3.org/2000/svg">
<path d="M24.8047 23.0254L18.8965 17.1172C18.75 17.0195 18.6035 16.9219 18.457 16.9219H17.8223C19.3359 15.1641 20.3125 12.8203 20.3125 10.2812C20.3125 4.71484 15.7227 0.125 10.1562 0.125C4.54102 0.125 8.47203e-09 4.71484 2.58427e-08 10.2812C4.33658e-08 15.8965 4.54102 20.4375 10.1563 20.4375C12.6953 20.4375 14.9902 19.5098 16.7969 17.9961L16.7969 18.6309C16.7969 18.7773 16.8457 18.9238 16.9434 19.0703L22.8516 24.9785C23.0957 25.2227 23.4863 25.2227 23.6816 24.9785L24.8047 23.8555C25.0488 23.6602 25.0488 23.2695 24.8047 23.0254ZM10.1563 18.0937C5.81055 18.0937 2.34375 14.627 2.34375 10.2812C2.34375 5.98437 5.81055 2.46875 10.1563 2.46875C14.4531 2.46875 17.9688 5.98437 17.9688 10.2812C17.9688 14.627 14.4531 18.0937 10.1563 18.0937Z" fill="white"/>
</svg>
