<svg width="121" height="121" viewBox="0 0 121 121" fill="none" xmlns="http://www.w3.org/2000/svg">
<path d="M0.254234 107.954L12.8437 120.57C13.416 121.143 16.8497 121.143 17.4218 120.57L90.6704 48.8872C91.8148 47.7401 92.9594 47.1666 94.6761 47.1666C95.2484 47.1666 96.3931 47.1666 96.9651 47.7401C99.2542 48.3137 100.399 50.6075 100.399 52.9013V89.0296V89.6031H118.711C119.855 89.6031 120.428 89.6031 121 89.6031V1.86383C121 1.86383 121 1.86384 119.856 0.716773C118.711 -0.43029 119.284 0.143524 118.139 0.143524H32.3005C32.3005 0.716773 32.3005 1.2903 32.3005 3.0109V20.7878C32.3005 21.9346 32.3005 23.0817 32.3005 23.0817H68.9249C71.2139 23.0817 73.5029 24.2284 74.0749 26.5223C75.2193 28.8161 74.6473 31.11 72.9306 32.8306L1.3989 103.94C0.826576 104.513 0.254234 105.087 0.254234 106.234C-0.31781 107.38 0.254234 107.38 0.254234 107.954Z" fill="#FF7425"/>
</svg>
