<svg width="41" height="46" viewBox="0 0 41 46" fill="none" xmlns="http://www.w3.org/2000/svg">
<g clip-path="url(#clip0_101_2)">
<path d="M9.40918 22.1381V17.8675L22.3287 6.74097V10.9924L9.40918 22.1381Z" fill="white"/>
<path d="M22.3286 10.9924V6.74097L36.0457 18.7632L35.2481 22.1381L22.3286 10.9924Z" fill="white"/>
<path d="M22.3286 33.3414L3 16.6803L22.3286 0L41.6571 16.6803L22.3286 33.3414ZM7.98802 16.3421L22.3286 29.0526L37.9161 16.6803L22.3286 4.23684L7.98802 16.3421Z" fill="white"/>
<path d="M22.3286 39.6612V35.1607L41.6572 18.4805V22.9809L22.3286 39.6612Z" fill="white"/>
<path d="M3 22.9809V18.4805L22.3286 35.1607V39.6612L3 22.9809Z" fill="white"/>
<path d="M22.3286 46V41.4996L41.6572 24.8193V29.3198L22.3286 46Z" fill="white"/>
<path d="M3 29.3198V24.8193L22.3286 41.4996V46L3 29.3198Z" fill="white"/>
</g>
<defs>
<clipPath id="clip0_101_2">
<rect width="41" height="46" fill="white"/>
</clipPath>
</defs>
</svg>
