<svg width="64" height="64" viewBox="0 0 64 64" fill="none" xmlns="http://www.w3.org/2000/svg">
<path d="M62.4866 1.07591H18.0846V1.07606V1.08001V1.08397V1.08795V1.09193V1.09593V1.09994V1.10395V1.10798V1.11202V1.11608V1.12014V1.12421V1.1283V1.13239V1.1365V1.14062V1.14475V1.14889V1.15304V1.15721V1.16138V1.16557V1.16977V1.17398V1.1782V1.18243V1.18668V1.19093V1.1952V1.19948V1.20377V1.20807V1.21238V1.21671V1.22105V1.2254V1.22976V1.23413V1.23852V1.24291V1.24732V1.25174V1.25618V1.26062V1.26508V1.26955V1.27403V1.27852V1.28303V1.28754V1.29207V1.29662V1.30117V1.30574V1.31031V1.31491V1.31951V1.32413V1.32875V1.33339V1.33805V1.34271V1.34739V1.35208V1.35679V1.3615V1.36623V1.37097V1.37573V1.38049V1.38527V1.39006V1.39487V1.39969V1.40452V1.40936V1.41422V1.41909V1.42397V1.42887V1.43377V1.4387V1.44363V1.44858V1.45354V1.45851V1.4635V1.4685V1.47351V1.47854V1.48358V1.48863V1.4937V1.49878V1.50387V1.50898V1.5141V1.51924V1.52438V1.52954V1.53472V1.53991V1.54511V1.55032V1.55555V1.5608V1.56605V1.57132V1.57661V1.5819V1.58722V1.59254V10.9952V10.9988V11.0023V11.0059V11.0094V11.013V11.0165V11.0201V11.0236V11.0272V11.0308V11.0343V11.0379V11.0414V11.045V11.0485V11.0521V11.0556V11.0592V11.0627V11.0663V11.0698V11.0734V11.0769V11.0805V11.084V11.0875V11.0911V11.0946V11.0982V11.1017V11.1053V11.1088V11.1123V11.1159V11.1194V11.123V11.1265V11.13V11.1336V11.1371V11.1406V11.1442V11.1477V11.1512V11.1547V11.1583V11.1618V11.1653V11.1688V11.1724V11.1759V11.1794V11.1829V11.1864V11.1899V11.1935V11.197V11.2005V11.204V11.2075V11.2085H36.4561C37.8966 11.2085 39.6243 11.9296 40.1216 13.6783C40.8803 15.2963 40.4285 16.9229 39.2828 18.0712L39.2799 18.0741L1.44777 55.6827C1.44724 55.6833 1.4467 55.6838 1.44618 55.6843C1.28293 55.848 1.22174 55.916 1.18162 55.9831C1.1591 56.0207 1.13447 56.0711 1.13447 56.1897V56.4252L1.04776 56.5991L7.38511 62.9498C7.39787 62.9524 7.41233 62.9551 7.42859 62.958C7.57531 62.9836 7.78046 63 8.00415 63C8.22784 63 8.43298 62.9836 8.57967 62.958C8.59735 62.9549 8.61291 62.9519 8.62646 62.9491L47.2544 25.147C47.6148 24.7864 48.015 24.4763 48.4969 24.2617C48.9851 24.0442 49.5057 23.9476 50.0766 23.9476L50.0904 23.9476C50.2408 23.9476 50.537 23.9475 50.8468 23.9992C51.083 24.0387 51.4348 24.1241 51.7566 24.346C53.4181 24.8881 54.1034 26.5737 54.1034 27.9809V46.3934H62.7893H62.7928H62.7964H62.7999H62.8034H62.8069H62.8104H62.8139H62.8174H62.8209H62.8244H62.8279H62.8313H62.8348H62.8383H62.8417H62.8451H62.8486H62.852H62.8554H62.8588H62.8623H62.8657H62.869H62.8724H62.8758H62.8792H62.8826H62.8859H62.8893H62.8926H62.896H62.8993H62.9026H62.9059H62.9093H62.9126H62.9159H62.9192H62.9225H62.9257H62.929H62.9323H62.9356H62.9388H62.9421H62.9453H62.9486H62.9518H62.955H62.9582H62.9615H62.9647H62.9679H62.9711H62.9742H62.9774H62.9806H62.9838H62.9869H62.9901H62.9933H62.9964H62.9995H63V1.39936L62.6868 1.08539C62.6814 1.07997 62.6761 1.07465 62.6709 1.06943C62.6121 1.07371 62.5508 1.07591 62.4866 1.07591ZM7.30979 62.9308C7.31062 62.9311 7.31181 62.9315 7.31335 62.932C7.30409 62.9281 7.30213 62.9281 7.30979 62.9308ZM8.69839 62.9309C8.70605 62.9281 8.70409 62.9282 8.69484 62.9321C8.69638 62.9316 8.69756 62.9312 8.69839 62.9309Z" stroke="#FF014F" stroke-width="2"/>
</svg>
